<svg width="427" height="427" viewBox="0 0 427 427" fill="none" xmlns="http://www.w3.org/2000/svg">
<path fill-rule="evenodd" clip-rule="evenodd" d="M199.5 83.125C208 77.625 216 77.625 224.5 83.125C233 88.6249 329 152.125 335.5 156.625C342 161.125 348 165.625 348 172.125V255.125C348 261.074 342.975 264.51 337.14 268.499L337.136 268.502C336.596 268.871 336.05 269.244 335.5 269.625C329 274.125 231.5 339.125 224.5 343.625C217.5 348.125 206.5 348.125 199.5 343.625C192.5 339.125 95.4998 274.125 89.0001 269.625C82.5005 265.125 78.0005 261.625 78.0001 255.125C77.9999 249.934 78 204.238 78.0001 182.737L78.0001 172.125C78.0001 165.625 83.0001 160.625 89.0001 156.625C95.0001 152.625 191 88.625 199.5 83.125ZM212 187.125L173 213.625L212 239.125L252.5 213.625L212 187.125ZM199.5 113.125V165.125L151.5 197.625L113 172.125L199.5 113.125ZM224.5 165.125V113.125L313 172.125L273 197.625L224.5 165.125ZM296 213.625L324 194.5V231.5L296 213.625ZM224.5 263.125V313.125L313 255.125L273 228.625L224.5 263.125ZM199.5 313.125V263.125L151.5 228.625L113 255.125L199.5 313.125ZM129 213.625L102 232V193L129 213.625Z" fill="white"/>
</svg>
