<svg width="427" height="427" viewBox="0 0 427 427" fill="none" xmlns="http://www.w3.org/2000/svg">
<!-- <path d="M426.533 209.5C424.479 92.7048 329.847 -0.136771 213.033 0.000151255C96.3592 0.136911 2.08503 92.844 0.0333158 209.5C-2.05484 328.228 94.287 426.361 213.033 426.5C331.916 426.639 428.624 328.365 426.533 209.5Z" fill="#272829"/> -->
<path fill-rule="evenodd" clip-rule="evenodd" d="M214.501 288C180.501 288 148.501 273 148.501 273L143.501 277C143.501 277 149.19 280.537 153.001 282.5C157.742 284.942 165.501 288 165.501 288C165.501 288 162.242 295.83 159.501 300.5C157.225 304.377 153.001 310 153.001 310C153.001 310 129.674 302.842 116.001 295.5C104.598 289.377 88.5009 277 88.5009 277C88.5009 277 83.5 236.5 95.0009 196.5C106.502 156.5 125.501 131.5 125.501 131.5C125.501 131.5 142.011 124.371 153.001 121C162.418 118.111 177.501 115 177.501 115L184.001 128.5C184.001 128.5 202.55 125.913 214.501 126C225.479 126.08 242.501 128.5 242.501 128.5L248.001 115C248.001 115 266.319 117.37 277.501 121C287.231 124.159 301.501 131.5 301.501 131.5C301.501 131.5 321.002 162.5 331.501 196.5C342 230.5 338.001 277 338.001 277C338.001 277 321.539 289.284 310.001 295.5C296.976 302.517 275.001 310 275.001 310C275.001 310 269.726 304.512 267.001 300.5C263.909 295.949 260.501 288 260.501 288C260.501 288 268 285 273 282.5C278 280 282.501 277 282.501 277L277.501 273C277.501 273 248.501 288 214.501 288ZM256.501 196.5C269.373 197.353 277.378 209.1 277.501 222C277.625 235.051 269.524 247.139 256.501 248C242.713 248.911 232.367 235.818 232.501 222C232.633 208.325 242.856 195.596 256.501 196.5ZM171.501 196.5C158.091 196.354 148.63 208.59 148.501 222C148.37 235.556 157.945 248.148 171.501 248C184.928 247.854 194.13 235.427 194.001 222C193.873 208.72 184.781 196.645 171.501 196.5Z" fill="white"/>
</svg>
