<svg width="427" height="427" viewBox="0 0 427 427" fill="none" xmlns="http://www.w3.org/2000/svg">
<path d="M249.54 305.513C249.54 294.313 243.207 285.18 240.04 282.013C240.04 282.013 269.614 279.987 283.54 269.013C300.071 255.987 304.702 241.43 307.04 220.513C309.116 201.941 301.54 184.513 291.54 168.513C300.04 154.013 291.54 127.013 291.54 127.013C291.54 127.013 264.04 133.513 249.54 143.013C249.54 143.013 228.652 138.259 215.04 138.013C199.494 137.733 175.54 143.013 175.54 143.013C161.54 131.513 134.04 127.013 134.04 127.013C134.04 127.013 122.04 148.513 133.04 168.013C128.54 173.013 115.504 201.817 117.54 220.513C119.856 241.786 125.975 256.102 143.04 269.013C156.584 279.26 184.54 282.013 184.54 282.013C181.54 285.013 175.54 293.313 175.54 302.513C173.54 305.013 160 306 152.5 305.5C145.516 305.034 136.5 296 135 293C133.5 290 130 284.5 121.5 277.5C113.169 272.085 101.5 274 102.04 276.013C105 282 106.273 280.5 111 284.5C115.727 288.5 122.96 298 124 302.513C125.04 307.027 127 312.5 135 318C144.559 324.572 165.207 324.347 175.54 322.513V350.513C175.54 360.513 166.5 358.013 166.5 358.013C166.5 358.013 129.905 343.313 113.04 328.013C78.8688 297.014 65.103 266.638 64.0399 220.513C62.1023 136.447 130.959 65.8851 215.04 67.0133C298.033 68.1269 364.315 137.544 362.04 220.513C360.771 266.796 346.768 297.392 312.04 328.013C294.201 343.743 259.04 358.013 259.04 358.013C259.04 358.013 249.54 360.847 249.54 350.513V305.513Z" fill="white"/>
</svg>
