<svg width="427" height="427" viewBox="0 0 427 427" fill="none" xmlns="http://www.w3.org/2000/svg">
<!-- <path d="M426.533 209.5C424.479 92.7048 329.847 -0.136771 213.033 0.000151255C96.3592 0.136911 2.08503 92.844 0.0333158 209.5C-2.05484 328.228 94.287 426.361 213.033 426.5C331.916 426.639 428.624 328.365 426.533 209.5Z" fill="#272829"/> -->
<path d="M171.033 256C171.033 256 276 158.5 277.033 157.5C278.066 156.5 276.133 147.7 268.533 150.5C260.933 153.3 171.367 207.667 127.533 234.5L154.533 313.5C155.438 315.062 157.154 317.055 159.381 318L171.033 256Z" fill="#CFD8DC"/>
<path fill-rule="evenodd" clip-rule="evenodd" d="M127.533 234.5L72.5333 220.5C65.7 216.167 56.1333 205.9 72.5333 199.5C88.9333 193.1 231.7 136.167 301.033 108.5C308.367 105.333 322.233 103 319.033 119C315.833 135 292.367 258.333 281.033 318C277.367 325.167 267.233 337.1 256.033 327.5C248.669 321.188 224.471 300.838 202.033 282.002C190.347 272.192 179.138 262.792 171.033 256C171.033 256 276 158.5 277.033 157.5C278.066 156.5 276.133 147.7 268.533 150.5C260.933 153.3 171.367 207.667 127.533 234.5Z" fill="white"/>
<path d="M202.033 282.002C190.347 272.192 179.138 262.792 171.033 256L159.381 318C161.668 318.971 164.493 318.837 167.533 316C173.533 310.4 193.033 291.001 202.033 282.002Z" fill="#B0BEC5"/>
</svg>
